HIERARCHY
ROOT Hips
{
	OFFSET 0.000000 0.000000 0.000000
	CHANNELS 6 Xposition Yposition Zposition Zrotation Yrotation Xrotation 
	JOINT LHipJoint
	{
		OFFSET 0.000000 0.000000 0.000000
		CHANNELS 3 Zrotation Yrotation Xrotation
		JOINT LeftUpLeg
		{
			OFFSET 1.363060 -1.794630 0.839290
			CHANNELS 3 Zrotation Yrotation Xrotation
			JOINT LeftLeg
			{
				OFFSET 2.448110 -6.726130 0.000000
				CHANNELS 3 Zrotation Yrotation Xrotation
				JOINT LeftFoot
				{
					OFFSET 2.562200 -7.039590 0.000000
					CHANNELS 3 Zrotation Yrotation Xrotation
					JOINT LeftToeBase
					{
						OFFSET 0.157640 -0.433110 2.322550
						CHANNELS 3 Zrotation Yrotation Xrotation
						End Site
						{
							OFFSET 0.000000 0.000000 0.000000
						}
					}
				}
			}
		}
	}
	JOINT RHipJoint
	{
		OFFSET 0.000000 0.000000 0.000000
		CHANNELS 3 Zrotation Yrotation Xrotation
		JOINT RightUpLeg
		{
			OFFSET -1.305520 -1.794630 0.839290
			CHANNELS 3 Zrotation Yrotation Xrotation
			JOINT RightLeg
			{
				OFFSET -2.542530 -6.985550 0.000000
				CHANNELS 3 Zrotation Yrotation Xrotation
				JOINT RightFoot
				{
					OFFSET -2.568260 -7.056230 0.000000
					CHANNELS 3 Zrotation Yrotation Xrotation
					JOINT RightToeBase
					{
						OFFSET -0.164730 -0.452590 2.363150
						CHANNELS 3 Zrotation Yrotation Xrotation
						End Site
						{
							OFFSET 0.000000 0.000000 0.000000
						}
					}
				}
			}
		}
	}
	JOINT LowerBack
	{
		OFFSET 0.000000 0.000000 0.000000
		CHANNELS 3 Zrotation Yrotation Xrotation
		JOINT Spine
		{
			OFFSET 0.028270 2.035590 -0.193380
			CHANNELS 3 Zrotation Yrotation Xrotation
			JOINT Spine1
			{
				OFFSET 0.056720 2.048850 -0.042750
				CHANNELS 3 Zrotation Yrotation Xrotation
				JOINT Neck
				{
					OFFSET 0.000000 0.000000 0.000000
					CHANNELS 3 Zrotation Yrotation Xrotation
					JOINT Neck1
					{
						OFFSET -0.054170 1.746240 0.172020
						CHANNELS 3 Zrotation Yrotation Xrotation
						JOINT Head
						{
							OFFSET 0.104070 1.761360 -0.123970
							CHANNELS 3 Zrotation Yrotation Xrotation
							End Site
							{
								OFFSET 0.000000 0.000000 0.000000
							}
						}
					}
				}
				JOINT LeftShoulder
				{
					OFFSET 0.000000 0.000000 0.000000
					CHANNELS 3 Zrotation Yrotation Xrotation
					JOINT LeftArm
					{
						OFFSET 3.362410 1.200890 -0.311210
						CHANNELS 3 Zrotation Yrotation Xrotation
						JOINT LeftForeArm
						{
							OFFSET 4.983000 -0.000000 -0.000000
							CHANNELS 3 Zrotation Yrotation Xrotation
							JOINT LeftHand
							{
								OFFSET 3.483560 -0.000000 -0.000000
								CHANNELS 3 Zrotation Yrotation Xrotation
								JOINT LeftFingerBase
								{
									OFFSET 0.000000 0.000000 0.000000
									CHANNELS 3 Zrotation Yrotation Xrotation
									JOINT LeftHandIndex1
									{
										OFFSET 0.715260 -0.000000 -0.000000
										CHANNELS 3 Zrotation Yrotation Xrotation
										End Site
										{
											OFFSET 0.000000 0.000000 0.000000
										}
									}
								}
								JOINT LThumb
								{
									OFFSET 0.000000 0.000000 0.000000
									CHANNELS 3 Zrotation Yrotation Xrotation
									End Site
									{
										OFFSET 0.000000 0.000000 0.000000
									}
								}
							}
						}
					}
				}
				JOINT RightShoulder
				{
					OFFSET 0.000000 0.000000 0.000000
					CHANNELS 3 Zrotation Yrotation Xrotation
					JOINT RightArm
					{
						OFFSET -3.136600 1.374050 -0.404650
						CHANNELS 3 Zrotation Yrotation Xrotation
						JOINT RightForeArm
						{
							OFFSET -5.241900 -0.000000 -0.000000
							CHANNELS 3 Zrotation Yrotation Xrotation
							JOINT RightHand
							{
								OFFSET -3.444170 -0.000000 -0.000000
								CHANNELS 3 Zrotation Yrotation Xrotation
								JOINT RightFingerBase
								{
									OFFSET 0.000000 0.000000 0.000000
									CHANNELS 3 Zrotation Yrotation Xrotation
									JOINT RightHandIndex1
									{
										OFFSET -0.622530 -0.000000 -0.000000
										CHANNELS 3 Zrotation Yrotation Xrotation
										End Site
										{
											OFFSET 0.000000 0.000000 0.000000
										}
									}
								}
								JOINT RThumb
								{
									OFFSET 0.000000 0.000000 0.000000
									CHANNELS 3 Zrotation Yrotation Xrotation
									End Site
									{
										OFFSET 0.000000 0.000000 0.000000
									}
								}
							}
						}
					}
				}
			}
		}
	}
}
MOTION
Frames: 10
Frame Time: 0.008333
0.854389 18.406536 -8.815974 -4.934729 -4.638371 12.894287 3.359218 3.084948 1.257329 -18.851921 -5.782249 -5.872244 3.076746 9.762771 31.598677 1.062734 1.677259 23.272406 1.976820 -8.815738 -25.221807 -5.496139 -3.698178 0.051419 31.211346 4.006001 -1.489394 -3.658677 -9.277897 30.517039 0.103164 -8.774787 18.208209 -0.126144 1.569967 -4.335155 3.679834 2.693678 5.327121 1.902375 3.499534 -0.992270 2.039023 2.143621 -4.089378 -6.665005 -4.782856 -15.700015 6.237073 -6.014818 16.731654 3.199403 -2.809032 11.226446 -3.754907 3.234685 -2.995852 -72.190329 25.789235 40.953345 66.175135 -59.579663 -45.587339 0.158093 -2.027551 -18.033962 25.192439 19.805058 10.168738 -7.125000 0.000000 0.000000 -3.293524 53.973252 -0.727564 1.495087 -2.408549 -1.519888 70.797913 -28.862298 44.876181 -129.653393 54.240943 -95.084823 2.065176 -1.421464 3.273548 -35.649000 28.355029 -20.674786 7.125000 0.000000 0.000000 -3.963375 5.129002 -4.315392
0.857348 18.648921 -8.521824 -4.887477 -5.099555 12.628794 3.284867 3.149648 1.248870 -19.196369 -6.485565 -3.729925 2.706705 9.011582 28.894515 1.287130 5.460875 27.991906 1.664414 -8.093564 -23.018179 -5.465191 -3.733943 0.070896 30.913503 4.353694 -1.349088 -3.800988 -9.440838 30.881067 -0.425493 -9.810491 23.194643 -0.105131 -1.423718 3.931277 3.659117 2.748926 4.016713 1.859432 3.468360 -1.046846 2.034032 2.134501 -3.487491 -6.644523 -4.666018 -15.556167 6.020698 -5.903591 17.720015 3.137437 -2.794063 11.546044 -3.714585 3.246510 -3.026327 -72.010880 27.537202 40.071518 67.032808 -59.895139 -46.378673 0.157919 -2.011713 -18.164617 25.041377 19.448004 9.940413 -7.125000 0.000000 0.000000 -3.343238 53.542569 -0.702202 1.456030 -2.461875 -1.505513 70.322932 -29.920582 45.751215 -130.690807 53.790023 -95.825091 2.104410 -1.469854 3.332918 -36.902712 28.810914 -21.848274 7.125000 0.000000 0.000000 -4.577994 6.099000 -5.055546
0.857952 18.893429 -8.240689 -4.839931 -5.396063 12.458007 3.219435 3.207535 1.232328 -19.500768 -7.638370 -1.992753 2.453226 8.426608 26.636491 1.550480 9.298186 31.961182 1.173711 -6.851536 -19.285901 -5.443672 -3.760515 0.120783 30.760883 4.959125 -1.507754 -3.993260 -9.700580 31.592192 -1.007100 -10.402627 27.256382 -0.385073 -3.897851 10.800944 3.653589 2.725810 2.863840 1.813724 3.350180 -1.145489 2.002903 2.081529 -3.064546 -6.586584 -4.573375 -15.437137 5.811494 -5.830550 18.684001 3.062644 -2.791822 11.876267 -3.681160 3.251950 -3.066695 -71.928966 29.237740 38.972379 67.658231 -60.143476 -46.945358 0.186391 -2.005863 -18.105253 24.680833 19.775802 9.905439 -7.125000 0.000000 0.000000 -3.856846 53.817187 -0.846013 1.422680 -2.504108 -1.493519 69.991698 -31.005629 46.411991 -131.457806 53.436725 -96.370412 2.132639 -1.519067 3.792873 -38.088109 29.115500 -22.913777 7.125000 0.000000 0.000000 -5.181731 6.888371 -5.791071
0.855539 19.131247 -7.981943 -4.691782 -5.636519 12.259325 3.167138 3.251891 1.211078 -19.901066 -8.828307 -0.572835 2.299312 8.022947 24.983325 2.013558 12.129553 35.736133 0.796031 -5.650773 -15.785437 -5.434197 -3.769282 0.192569 30.624123 5.816052 -1.842292 -4.237156 -10.059112 32.713113 -1.450802 -10.551660 29.730176 -0.715148 -5.381637 15.005904 3.497280 2.626108 1.997967 1.781333 3.150007 -1.270870 2.073652 1.989885 -2.874687 -6.632916 -4.476466 -15.113404 5.603627 -5.713694 19.496114 3.015310 -2.785726 12.109782 -3.649463 3.251740 -3.117962 -72.023462 31.077925 37.630797 68.566397 -60.454578 -47.703085 0.272604 -2.028197 -17.851552 24.316920 21.699704 10.517806 -7.125000 0.000000 0.000000 -5.002155 55.821183 -1.359732 1.386675 -2.528053 -1.479888 69.643542 -32.036835 46.934604 -132.031383 53.159848 -96.774739 2.155964 -1.566874 4.294488 -39.137953 29.421426 -23.897591 7.125000 0.000000 0.000000 -5.703421 7.638525 -6.440898
0.850422 19.361998 -7.736607 -4.389830 -5.994546 12.014318 3.135222 3.275556 1.184006 -20.515051 -9.696973 0.505672 2.243079 7.817002 24.038557 2.728884 13.701180 39.552324 0.405095 -3.942290 -10.929418 -5.431659 -3.760116 0.274737 30.339980 6.766017 -2.378067 -4.546202 -10.529309 34.314429 -1.680331 -10.208126 30.595549 -0.982033 -6.307309 17.678938 3.124314 2.553328 1.354205 1.724451 2.999614 -1.370177 2.199813 1.923561 -2.765422 -6.710558 -4.351300 -14.807021 5.414832 -5.537351 20.168968 2.987529 -2.753759 12.292798 -3.617495 3.248834 -3.171628 -72.126216 32.963149 36.235768 69.849027 -60.853067 -48.741523 0.395775 -2.064578 -17.625995 23.974026 24.658663 11.507697 -7.125000 0.000000 0.000000 -6.718499 58.910596 -2.298659 1.351993 -2.543739 -1.469515 69.409186 -32.834099 47.176129 -132.353897 52.996773 -97.014801 2.143610 -1.586977 4.554041 -38.857890 29.488312 -23.738322 7.125000 0.000000 0.000000 -5.525940 7.620408 -6.237215
0.845076 19.580075 -7.504035 -4.023668 -6.442710 11.730413 3.138348 3.269014 1.156823 -21.253429 -10.252759 1.208141 2.268579 7.805370 23.874861 3.350284 14.002593 42.144231 0.040277 -1.223781 -3.365389 -5.435497 -3.736383 0.356092 29.974957 7.600934 -3.170492 -4.925377 -11.101383 36.370937 -1.721501 -9.361999 30.170281 -1.046589 -6.504116 18.255024 2.698794 2.564328 0.915422 1.613008 2.979464 -1.407200 2.215465 1.918146 -2.628834 -6.647828 -4.224537 -14.831291 5.225699 -5.385149 20.859370 2.921659 -2.709589 12.562210 -3.595959 3.245252 -3.216263 -72.105330 34.471743 34.959707 70.781925 -61.157541 -49.502513 0.459981 -2.083694 -17.527102 23.805436 26.304744 12.032758 -7.125000 0.000000 0.000000 -7.814836 60.603569 -2.984426 1.335913 -2.565769 -1.466968 69.515958 -33.364675 46.935111 -132.182351 53.068149 -96.898194 2.126150 -1.581615 5.023031 -38.590512 29.173523 -23.330975 7.125000 0.000000 0.000000 -5.460095 7.150113 -6.123359
0.839818 19.776315 -7.301982 -3.561090 -6.813594 11.315119 3.175584 3.236353 1.143278 -22.045286 -10.297170 1.741433 2.284012 7.846708 24.185743 3.666484 12.252228 42.889777 0.004746 0.382495 1.050904 -5.446836 -3.704930 0.418829 29.565351 8.171641 -4.159333 -5.373431 -11.734896 38.712930 -1.630745 -8.574289 29.021756 -0.876296 -5.967556 16.690447 2.174601 2.556273 0.897790 1.486850 2.961664 -1.370849 2.227058 1.911280 -2.563022 -6.627143 -4.175233 -15.093604 5.081989 -5.316267 21.433469 2.863851 -2.693296 12.861557 -3.588319 3.244108 -3.257658 -72.203367 35.530281 33.633422 71.145322 -61.314165 -49.843817 0.411562 -2.080035 -17.301389 24.057560 25.466188 11.863478 -7.125000 0.000000 0.000000 -7.039497 59.789108 -2.549213 1.333792 -2.579751 -1.467530 69.793502 -33.639733 46.291884 -131.645773 53.310602 -96.514467 2.122037 -1.546194 5.368383 -38.613675 28.558029 -22.934607 7.125000 0.000000 0.000000 -5.640421 6.424297 -6.265024
0.832657 19.958514 -7.124387 -2.982562 -6.980052 10.753588 3.242874 3.179774 1.155043 -22.842994 -9.965669 2.187360 2.260256 7.906882 24.927087 3.569606 8.027010 41.420034 0.020549 -0.831882 -2.286751 -5.468329 -3.673829 0.459238 29.132361 8.468164 -5.303559 -5.900134 -12.395712 41.175954 -1.523824 -8.777517 28.225194 -0.814907 -5.759966 16.089555 1.472559 2.414178 1.280347 1.409138 2.778656 -1.337660 2.425370 1.829930 -2.739533 -6.755946 -4.141555 -15.124185 4.953887 -5.217452 21.742511 2.845990 -2.682336 13.005367 -3.585912 3.239985 -3.319666 -72.681371 36.525400 32.040974 71.085958 -61.353652 -49.810344 0.350894 -2.092378 -16.980224 24.561868 24.686127 11.850730 -7.125000 0.000000 0.000000 -6.040838 59.104790 -2.088333 1.330100 -2.569172 -1.460266 69.929752 -33.803432 45.676327 -131.068817 53.566588 -96.093069 2.133224 -1.510967 5.093145 -38.685708 28.331912 -22.827444 7.125000 0.000000 0.000000 -5.744560 6.169343 -6.359151
0.829509 20.145658 -6.934605 -2.446612 -6.969631 10.105047 3.275059 3.150529 1.148801 -23.547968 -10.238686 2.056797 2.400864 8.167731 25.806220 3.979008 6.876888 42.824684 0.045709 -1.367532 -3.760906 -5.469601 -3.659478 0.499428 28.702407 8.434793 -6.428411 -6.438242 -13.009176 43.524724 -1.493186 -9.285900 28.049068 -0.893600 -6.023602 16.853280 0.976766 2.239580 1.898478 1.302571 2.561736 -1.344736 2.434769 1.730817 -3.111183 -6.751279 -4.022840 -14.987714 4.817530 -5.042702 21.925299 2.814609 -2.628117 13.045817 -3.598225 3.227890 -3.378904 -73.023327 37.405445 30.674670 70.499707 -61.254806 -49.298379 0.341430 -2.118108 -17.100230 24.893405 24.716487 12.059559 -7.125000 0.000000 0.000000 -5.665393 59.244018 -1.975065 1.328509 -2.556702 -1.451880 70.316996 -33.964400 44.937661 -130.198023 53.934527 -95.464116 2.141966 -1.460874 4.900110 -38.716303 27.917260 -22.556744 7.125000 0.000000 0.000000 -5.875231 5.667256 -6.459075
0.831611 20.326916 -6.746631 -2.040446 -7.028479 9.406130 3.314242 3.125852 1.137679 -24.164175 -10.222838 1.903803 2.598530 8.506111 26.950706 4.323659 5.868581 44.005580 0.056286 -1.530807 -4.210679 -5.473143 -3.647272 0.532587 28.349730 8.354770 -7.501424 -6.950029 -13.553992 45.682914 -1.545861 -9.620072 28.290900 -1.029672 -6.450578 18.098738 0.694474 2.156684 2.632579 1.184800 2.472079 -1.288598 2.296711 1.687536 -3.406889 -6.666205 -3.815198 -14.950453 4.738008 -4.765213 21.923840 2.807481 -2.509479 13.015998 -3.617731 3.220208 -3.421335 -73.215707 38.059416 29.711164 69.661272 -61.086215 -48.587170 0.316121 -2.136237 -17.694265 25.368426 24.066949 12.071754 -7.125000 0.000000 0.000000 -4.795752 58.691148 -1.611679 1.340764 -2.555310 -1.449127 70.965299 -33.869772 43.761394 -128.918087 54.465006 -94.538342 2.134731 -1.384520 4.617781 -38.222278 27.238692 -21.728825 7.125000 0.000000 0.000000 -5.764060 4.657081 -6.244070
